<?xml version="1.0" encoding="utf-8"?>
<!-- Generator: Adobe Illustrator 23.0.1, SVG Export Plug-In . SVG Version: 6.00 Build 0)  -->
<svg version="1.1" id="图层_1" xmlns="http://www.w3.org/2000/svg" xmlns:xlink="http://www.w3.org/1999/xlink" x="0px" y="0px"
	 viewBox="0 0 90 90" style="enable-background:new 0 0 90 90;" xml:space="preserve">
<style type="text/css">
	.st0{fill:#FFF;}
	.st1{fill-rule:evenodd;clip-rule:evenodd;fill:#FFF;}
</style>
<path class="st0" d="M45,89.5c-24.5,0-44.5-20-44.5-44.5c0-24.5,20-44.5,44.5-44.5s44.5,20,44.5,44.5C89.5,69.5,69.5,89.5,45,89.5z
	 M45,3.5C22.1,3.5,3.5,22.1,3.5,45c0,22.9,18.6,41.5,41.5,41.5S86.5,67.9,86.5,45C86.5,22.1,67.9,3.5,45,3.5z"/>
<path class="st0" d="M45,34.5c-5.1,0-9.3-4.2-9.3-9.3s4.2-9.3,9.3-9.3s9.3,4.2,9.3,9.3S50.1,34.5,45,34.5z M45,18.8
	c-3.5,0-6.3,2.8-6.3,6.3s2.8,6.3,6.3,6.3s6.3-2.8,6.3-6.3S48.5,18.8,45,18.8z"/>
<path class="st0" d="M62.9,68c-0.8,0-1.5-0.7-1.5-1.5V46.2c0-6.1-4.9-11-11-11H39.6c-6.1,0-11,4.9-11,11v20.3c0,0.8-0.7,1.5-1.5,1.5
	s-1.5-0.7-1.5-1.5V46.2c0-7.7,6.3-14,14-14h10.8c7.7,0,14,6.3,14,14v20.3C64.4,67.3,63.7,68,62.9,68z"/>
<g>
	<path class="st1" d="M34.5,73.2L34.5,73.2c-1.1,0-2-0.9-2-2v-4.8c0-1.1,0.9-2,2-2h0c1.1,0,2,0.9,2,2v4.8
		C36.5,72.3,35.6,73.2,34.5,73.2z"/>
	<path class="st1" d="M41.5,73.2L41.5,73.2c-1.1,0-2-0.9-2-2v-8.1c0-1.1,0.9-2,2-2h0c1.1,0,2,0.9,2,2v8.1
		C43.4,72.3,42.6,73.2,41.5,73.2z"/>
	<path class="st1" d="M48.5,73.2L48.5,73.2c-1.1,0-2-0.9-2-2V59.8c0-1.1,0.9-2,2-2h0c1.1,0,2,0.9,2,2v11.4
		C50.4,72.3,49.6,73.2,48.5,73.2z"/>
	<path class="st1" d="M55.5,73.3L55.5,73.3c-1.1,0-2-0.9-2-2V55c0-1.1,0.9-2,2-2h0c1.1,0,2,0.9,2,2v16.3
		C57.4,72.4,56.6,73.3,55.5,73.3z"/>
</g>
</svg>
