<?xml version="1.0" encoding="utf-8"?>
<!-- Generator: Adobe Illustrator 23.0.1, SVG Export Plug-In . SVG Version: 6.00 Build 0)  -->
<svg version="1.1" id="图层_1" xmlns="http://www.w3.org/2000/svg" xmlns:xlink="http://www.w3.org/1999/xlink" x="0px" y="0px"
	 viewBox="0 0 90 90" style="enable-background:new 0 0 90 90;" xml:space="preserve">
<style type="text/css">
	.st0{fill:#FFF;}
</style>
<path class="st0" d="M45,89.5c-24.5,0-44.5-20-44.5-44.5c0-24.5,20-44.5,44.5-44.5s44.5,20,44.5,44.5C89.5,69.5,69.5,89.5,45,89.5z
	 M45,3.5C22.1,3.5,3.5,22.1,3.5,45c0,22.9,18.6,41.5,41.5,41.5S86.5,67.9,86.5,45C86.5,22.1,67.9,3.5,45,3.5z"/>
<path class="st0" d="M55.7,68.3H34.3c-2.8,0-5-2.2-5-5V45.9c0-2.8,2.2-5,5-5h21.4c2.8,0,5,2.2,5,5v17.4C60.7,66,58.5,68.3,55.7,68.3
	z"/>
<path class="st0" d="M60.7,38.9c-0.8,0-1.5-0.7-1.5-1.5c0-7.8-6.4-14.2-14.2-14.2c-7.8,0-14.2,6.4-14.2,14.2c0,0.8-0.7,1.5-1.5,1.5
	s-1.5-0.7-1.5-1.5c0-9.5,7.7-17.2,17.2-17.2c9.5,0,17.2,7.7,17.2,17.2C62.2,38.2,61.5,38.9,60.7,38.9z"/>
</svg>
