<?xml version="1.0" encoding="utf-8"?>
<!-- Generator: Adobe Illustrator 23.0.1, SVG Export Plug-In . SVG Version: 6.00 Build 0)  -->
<svg version="1.1" id="图层_1" xmlns="http://www.w3.org/2000/svg" xmlns:xlink="http://www.w3.org/1999/xlink" x="0px" y="0px"
	 viewBox="0 0 90 90" style="enable-background:new 0 0 90 90;" xml:space="preserve">
<style type="text/css">
	.st0{fill:#fff;}
</style>
<path class="st0" d="M45,89.5c-24.5,0-44.5-20-44.5-44.5c0-24.5,20-44.5,44.5-44.5s44.5,20,44.5,44.5C89.5,69.5,69.5,89.5,45,89.5z
	 M45,3.5C22.1,3.5,3.5,22.1,3.5,45c0,22.9,18.6,41.5,41.5,41.5S86.5,67.9,86.5,45C86.5,22.1,67.9,3.5,45,3.5z"/>
<path class="st0" d="M61.4,62H28.6c-5.5,0-9.9-4.4-9.9-9.9V37.5c0-5.5,4.4-9.9,9.9-9.9h32.9c5.5,0,9.9,4.4,9.9,9.9v14.6
	C71.3,57.6,66.9,62,61.4,62z M28.6,30.6c-3.8,0-6.9,3.1-6.9,6.9v14.6c0,3.8,3.1,6.9,6.9,6.9h32.9c3.8,0,6.9-3.1,6.9-6.9V37.5
	c0-3.8-3.1-6.9-6.9-6.9H28.6z"/>
<path class="st0" d="M45,49.1c-1.6,0-3.3-0.4-4.8-1.2l-10.7-5.7c-0.7-0.4-1-1.3-0.6-2c0.4-0.7,1.3-1,2-0.6l10.7,5.7
	c2.2,1.2,4.8,1.1,7-0.1l9.6-5.6c0.7-0.4,1.6-0.2,2.1,0.5c0.4,0.7,0.2,1.6-0.5,2.1l-9.6,5.6C48.6,48.6,46.8,49.1,45,49.1z"/>
</svg>
