<?xml version="1.0" encoding="utf-8"?>
<!-- Generator: Adobe Illustrator 23.0.1, SVG Export Plug-In . SVG Version: 6.00 Build 0)  -->
<svg version="1.1" id="图层_1" xmlns="http://www.w3.org/2000/svg" xmlns:xlink="http://www.w3.org/1999/xlink" x="0px" y="0px"
	 viewBox="0 0 90 90" style="enable-background:new 0 0 90 90;" xml:space="preserve">
<style type="text/css">
	.st0{fill:#fff;}
</style>
<path class="st0" d="M45,89.5c-24.5,0-44.5-20-44.5-44.5c0-24.5,20-44.5,44.5-44.5s44.5,20,44.5,44.5C89.5,69.5,69.5,89.5,45,89.5z
	 M45,3.5C22.1,3.5,3.5,22.1,3.5,45c0,22.9,18.6,41.5,41.5,41.5S86.5,67.9,86.5,45C86.5,22.1,67.9,3.5,45,3.5z"/>
<path class="st0" d="M72.5,78.9h-3V39c0-0.4-0.2-0.9-0.4-1.2L54.6,21.3c-0.8-0.9-1.2-2-1.2-3.2V3.3h3v14.8c0,0.4,0.2,0.9,0.4,1.2
	l14.5,16.5c0.8,0.9,1.2,2,1.2,3.2V78.9z"/>
<path class="st0" d="M35.6,72.2h-3V46.9c0-0.5-0.2-0.9-0.5-1.3L17.8,31.5c-0.9-0.9-1.4-2.1-1.4-3.4v-17h3v17c0,0.5,0.2,0.9,0.5,1.3
	l14.2,14.1c0.9,0.9,1.4,2.1,1.4,3.4V72.2z"/>
<path class="st0" d="M63,84.7h-3V45c0-0.5-0.2-0.9-0.5-1.2L45.6,28.7c-0.8-0.9-1.3-2-1.3-3.3V2h3v23.4c0,0.5,0.2,0.9,0.5,1.2
	l13.9,15.1c0.8,0.9,1.3,2,1.3,3.3V84.7z"/>
<rect x="50.4" y="52.6" class="st0" width="3" height="33.6"/>
<path class="st0" d="M44,88h-3V42.5c0-0.5-0.2-0.9-0.5-1.2L32.6,33c-0.9-0.9-1.3-2.1-1.3-3.3V19.3h3v10.4c0,0.5,0.2,0.9,0.5,1.2
	l7.9,8.2c0.9,0.9,1.3,2.1,1.3,3.3V88z"/>
<circle class="st0" cx="51.9" cy="52.6" r="3.6"/>
<circle class="st0" cx="32.8" cy="19.3" r="3.6"/>
<path class="st0" d="M83.1,63.7l-5-5.2c-0.9-0.9-1.3-2.1-1.3-3.3V44.8h3v10.4c0,0.5,0.2,0.9,0.5,1.2l5,5.2L83.1,63.7z"/>
<circle class="st0" cx="78.3" cy="44.8" r="3.6"/>
<circle class="st0" cx="34.1" cy="73.7" r="3.6"/>
<circle class="st0" cx="13.4" cy="44.5" r="3.6"/>
<path class="st0" d="M25.2,82.4h-3V55.8c0-0.5-0.2-1-0.5-1.3L11.3,44.4l2.1-2.2l10.4,10.1c0.9,0.9,1.5,2.2,1.5,3.4V82.4z"/>
</svg>
