<?xml version="1.0" encoding="utf-8"?>
<!-- Generator: Adobe Illustrator 23.0.1, SVG Export Plug-In . SVG Version: 6.00 Build 0)  -->
<svg version="1.1" id="图层_1" xmlns="http://www.w3.org/2000/svg" xmlns:xlink="http://www.w3.org/1999/xlink" x="0px" y="0px"
	 viewBox="0 0 90 90" style="enable-background:new 0 0 90 90;" xml:space="preserve">
<style type="text/css">
	.st0{fill:#fff;}
	.st1{fill-rule:evenodd;clip-rule:evenodd;fill:#fff;}
</style>
<path class="st0" d="M45,89.5c-24.5,0-44.5-20-44.5-44.5c0-24.5,20-44.5,44.5-44.5s44.5,20,44.5,44.5C89.5,69.5,69.5,89.5,45,89.5z
	 M45,3.5C22.1,3.5,3.5,22.1,3.5,45c0,22.9,18.6,41.5,41.5,41.5S86.5,67.9,86.5,45C86.5,22.1,67.9,3.5,45,3.5z"/>
<g>
	<path class="st0" d="M40.9,32.7c-0.8,0-1.5-0.7-1.5-1.5V17.4L33.7,23c-0.6,0.6-1.5,0.6-2.1,0s-0.6-1.5,0-2.1l8.2-8.2
		c0.4-0.4,1.1-0.6,1.6-0.3c0.6,0.2,0.9,0.8,0.9,1.4v17.5C42.4,32,41.7,32.7,40.9,32.7z"/>
	<path class="st0" d="M49.7,41.4c-0.2,0-0.4,0-0.6-0.1c-0.6-0.2-0.9-0.8-0.9-1.4V22.5c0-0.8,0.7-1.5,1.5-1.5s1.5,0.7,1.5,1.5v13.8
		l5.6-5.6c0.6-0.6,1.5-0.6,2.1,0s0.6,1.5,0,2.1L50.8,41C50.5,41.3,50.1,41.4,49.7,41.4z"/>
</g>
<path class="st1" d="M41.4,65.7c-2,1.9-2,5.1,0,7.1c1.9,2,5.1,2,7.1,0c2-1.9,2-5.1,0-7.1C46.6,63.8,43.4,63.8,41.4,65.7z M34.4,58.6
	c0,0-1.7,1.8,0,3.5c1.7,1.7,3.5,0,3.5,0c3.9-3.9,10.3-3.9,14.2,0c0,0,1.8,1.8,3.5,0c1.8-1.8,0-3.5,0-3.5
	C49.8,52.8,40.2,52.8,34.4,58.6L34.4,58.6L34.4,58.6z M27.3,51.5c0,0-1.8,1.8,0,3.5c1.8,1.8,3.5,0,3.5,0c7.8-7.8,20.5-7.8,28.3,0.1
	c0,0,1.8,1.8,3.5,0c1.8-1.8,0-3.5,0-3.5C53,41.8,37.1,41.8,27.3,51.5L27.3,51.5z"/>
</svg>
